<?xml version="1.0" encoding="UTF-8"?>
<svg xmlns="http://www.w3.org/2000/svg" fill="none" viewBox="0 0 512 512"><path d="M204.88 35.27a7.48 7.48 0 01-6.93-10.38 7.5 7.5 0 013.18-3.62c16.96-9.76 40.53-9.86 58.67-.24a7.49 7.49 0 11-7.03 13.25c-13.54-7.18-31.7-7.18-44.15-.01-1.14.65-2.43 1-3.74 1" fill="#60D195"/><path d="M258.57 57.84a28.92 28.92 0 100-57.85 28.92 28.92 0 000 57.85" fill="#E85668"/><path d="M312.03 89.32h-95.11a47.2 47.2 0 0140.41-46.69l9.41-1.37a38 38 0 0028.99-21.45 7.27 7.27 0 0112.75-.7 72 72 0 0110.25 30.19 72 72 0 01-3.75 31.66z" fill="#F7D9A4"/><path opacity="0.05" d="M308.49 19.11a7.2 7.2 0 00-6.23-3.46 7.3 7.3 0 00-6.18 3.54 72.2 72.2 0 014.31 58l-2.96 8.36h-80.35q-.16 1.87-.16 3.77h95.11l2.96-8.36a72.2 72.2 0 00-6.5-61.85" fill="black"/><path d="M350.98 124.69H185.07l2.5-11.75a51.1 51.1 0 0141.42-39.8 232 232 0 0178.06 0 51 51 0 0126.83 13.53 51 51 0 0114.6 26.27z" fill="#F7D9A4"/><path opacity="0.05" d="M348.48 112.94a51.1 51.1 0 00-41.42-39.81q-6.54-1.11-13.1-1.83a51.1 51.1 0 0130.03 36.45l2.49 11.76h-140.3l-1.1 5.18h165.9z" fill="black"/><path d="M372.8 166.34H163.25v-16.69a45.45 45.45 0 0138.88-44.96 457 457 0 01131.79 0 45.5 45.5 0 0127.82 15.24 45.5 45.5 0 0111.06 29.72z" fill="#F7D9A4"/><path opacity="0.05" d="M333.93 104.69q-2.79-.4-5.57-.76a45.4 45.4 0 0119.48 37.29v16.69H163.25v8.43H372.8v-16.69a45.5 45.5 0 00-11.06-29.72 45.5 45.5 0 00-27.81-15.24" fill="black"/><path d="M168.31 136.49a13.3 13.3 0 00-13.31 13.3v13.33a507 507 0 0039.75 196.86 91.7 91.7 0 0035.35 41.83 22 22 0 0110.19 18.56v53.37h55.47v-53.37a22 22 0 0110.19-18.55 92 92 0 0035.36-41.84 507 507 0 0039.75-196.85v-13.34a13.34 13.34 0 00-13.31-13.3z" fill="#9BD8EB"/><path d="M168.31 136.49a13.3 13.3 0 00-13.31 13.3v13.33a507 507 0 0039.75 196.86 91.7 91.7 0 0035.35 41.83 22 22 0 0110.19 18.56v53.37h55.47v-53.37a22 22 0 0110.19-18.55 92 92 0 0035.36-41.84 507 507 0 0039.75-196.85v-13.34a13.34 13.34 0 00-13.31-13.3zM325.1 512H210.96a19.12 19.12 0 01-7.32-36.8c2.32-.96 4.8-1.46 7.32-1.46H325.1a19.16 19.16 0 0119.13 19.13A19.16 19.16 0 01325.1 512" fill="#9BD8EB"/><path opacity="0.1" d="M325.1 473.74h-27.73a19 19 0 0113.52 5.61A19.1 19.1 0 01297.37 512h27.73a19.14 19.14 0 000-38.26" fill="black"/><path opacity="0.05" d="M268.03 203.67a25.75 25.75 0 00-25.78 25.78v74.28a25.74 25.74 0 0025.78 25.77 25.8 25.8 0 0025.78-25.77v-74.28a25.8 25.8 0 00-25.78-25.78m97.42 0a25.74 25.74 0 00-25.77 25.78v74.28a25.8 25.8 0 0014.25 23.05 508 508 0 0025.18-119.2 25.7 25.7 0 00-13.66-3.91m-194.85 0a25.6 25.6 0 00-13.65 3.91 508 508 0 0025.18 119.2 25.8 25.8 0 0014.25-23.06v-74.27a26 26 0 00-7.55-18.23 25.8 25.8 0 00-18.23-7.55" fill="black"/><path opacity="0.3" d="M367.75 136.49H168.31a13.3 13.3 0 00-13.31 13.3v13.33q0 3.97.07 7.9h225.92q.07-3.95.07-7.9v-13.33a13.34 13.34 0 00-13.31-13.3" fill="white"/><path opacity="0.1" d="M367.75 136.49h-30.08a13.3 13.3 0 0113.3 13.3v13.33a507 507 0 01-39.74 196.86 92 92 0 01-35.36 41.84 22 22 0 00-10.19 18.55v32.07h-25.39v21.3h55.47v-53.37a22 22 0 0110.19-18.55 91.7 91.7 0 0035.35-41.84 507 507 0 0039.75-196.85v-13.34a13.2 13.2 0 00-8.21-12.29 13 13 0 00-5.09-1.01" fill="black"/><path d="M224.97 125.08a7.4 7.4 0 01-4.16-1.27 7.4 7.4 0 01-3.19-7.69c.29-1.46 1-2.79 2.05-3.84l9.36-9.36a7.48 7.48 0 0112.66 5.35 7.6 7.6 0 01-2.06 5.26l-9.36 9.35a7.4 7.4 0 01-5.3 2.2" fill="#FDA354"/><path d="M257.99 90q-.66 0-1.31-.12a7.46 7.46 0 01-6.09-8.68l2.3-13.03q.26-1.48 1.04-2.76a7.53 7.53 0 0112.53-.29 7.6 7.6 0 011.21 5.65l-2.3 13.03a7.5 7.5 0 01-7.38 6.2" fill="white"/><path d="M300.37 116.11a7.5 7.5 0 01-5.3-2.2l-9.35-9.36a7.6 7.6 0 01-1.69-8.21 7.4 7.4 0 014.08-4.08 7.6 7.6 0 015.78.03q1.38.58 2.43 1.66l9.36 9.35a7.52 7.52 0 01-5.3 12.8z" fill="#F98F9D"/></svg>